<?xml version="1.0" encoding="UTF-8"?><svg id="Layer_2" xmlns="http://www.w3.org/2000/svg" viewBox="0 0 1788.94 577.9"><defs><style>.cls-1{fill:#f77171;}</style></defs><g id="Layer_4"><path class="cls-1" d="m566.39,377.44v194.71c-188.8,0-377.59,0-566.39,0,0-76.23,0-152.46,0-228.69.24.5.57.98.69,1.5,12.51,53.87,25,107.74,37.49,161.62,1.58,6.83,3.18,13.67,4.84,20.79,5.1-1.17,9.78-2.23,14.46-3.32,37.59-8.73,75.24-17.24,112.75-26.29,23.84-5.75,46.5-14.63,66.68-28.95,17.36-12.31,30.69-27.81,37.51-48.32,6.3-18.95,5.56-38.05.95-57.17-8.58-35.61-29.54-59.08-66.17-66.97-5.54-1.19-11.18-1.92-17.14-2.93.96-.78,1.59-1.29,2.22-1.8,10-8.11,18.45-17.54,24.52-28.96,10.74-20.19,11.21-41.22,4.91-62.75-8.69-29.71-26.92-50.41-57.02-59.5-21.08-6.37-42.63-6.08-64.07-2.54-15.07,2.49-29.96,6.11-44.87,9.47C38.47,151.69,19.25,156.29,0,160.78,0,109.11,0,57.45,0,5.75h566.39v161.4c-.22-.53-.53-1.03-.66-1.58-8.29-35.76-16.56-71.52-24.85-107.29-1.61-6.97-3.27-13.92-4.98-21.23-29.96,6.94-59.56,13.8-89.27,20.69.16,1.16.2,1.86.36,2.53,2.27,9.86,4.56,19.72,6.85,29.57,13.59,58.57,27.15,117.15,40.78,175.71,3.64,15.65,6.95,31.31,4.48,47.53-2.1,13.8-7.85,25.61-19.01,34.39-10.6,8.33-22.92,12.37-36.1,13.95-17.19,2.07-32.52-2-45.15-14.37-9.95-9.74-16.29-21.74-19.88-34.94-4.66-17.13-8.53-34.48-12.55-51.78-11.52-49.51-22.94-99.04-34.4-148.55-1.99-8.57-4.01-17.14-6.11-26.07-29.97,6.95-59.66,13.83-89.47,20.74,4.22,18.23,8.3,35.88,12.38,53.52,11.73,50.67,23.52,101.32,35.14,152.01,4.69,20.48,10.24,40.62,20.24,59.28,22.5,41.97,57.47,65.1,104.88,69.07,22.88,1.92,45.39-1.04,67.51-6.98,27.69-7.44,53.14-19.25,74.23-39.14,5.54-5.23,10.41-11.16,15.59-16.77Z"/><path class="cls-1" d="m91.24,352.03c18.4-3.37,35.86-10.01,54.59-9.97,24.78.06,41.62,14.66,45.29,39.24,3.41,22.84-5.57,38.73-27.26,48.6-11.79,5.37-24.52,7.32-36.92,10.46-3.87.98-7.78,1.81-11.67,2.74-1.9.46-2.94.17-3.46-2.11-6.74-29.45-13.6-58.86-20.58-88.97Z"/><path class="cls-1" d="m78.05,295.04c-6.28-27.1-12.41-53.53-18.64-80.43,5.7-1.35,11.25-2.73,16.83-3.97,11.47-2.55,22.8-5.95,34.72-5.88,20.66.12,34.63,12.81,37.77,33.3,3.61,23.48-9.67,39.48-30.56,46.44-12.9,4.3-26.33,6.98-40.11,10.54Z"/><g><path class="cls-1" d="m1274.99,153.43h-10.48c-.05-.69-.11-1.38-.16-2.06,3.52-.48,7.04-.95,10.57-1.43.03,1.16.05,2.33.08,3.49Z"/><path class="cls-1" d="m945.34,442.67c5.45-23.15,13.08-45.95,11.35-70.28-.31-4.35-1.45-9.38.2-13,6.78-14.85,4.01-29.39-.44-43.79-1.77-5.72-3.76-11-3.82-17.24-.05-6.36-3.15-12.69-3.25-19.06-.13-7.93-.07-15.89-4.14-22.71-4.34-7.28-3.23-15.06-3.67-22.91-8.64-4.76-8.99-14.03-10.84-21.65-4.4-18.17-8.77-35.92-18.39-52.46-7.63-13.13-12.48-27.92-11.87-43.72.04-1.04,1.02-2.05,1.32-2.63,2.24-.78,4.09-1.43,9.16-3.2-6.93-1-10.37-1.5-14.29-2.06,5.1-3.75,9.59-7.05,14.64-10.76h17.55c2.53-2.53,4.74-4.74,10.27-3.71-.02,2.08,1.95,6.52,4.02,11.18,5.12-.03,9.96,1.32,15.29-2.77,6.29-4.82,14.17-7.75,21.65-10.8,8.98-3.67,17.54-9.2,27.7-8.51,1.05,2.93,1.83,5.09,3.24,8.99,4.7-2.2,8.95-4.18,13.81-6.46-2.29-2.29-3.17-3.17-4.43-4.43,11.13-12.04,25.93-17.2,40.74-22.11v-12.15c-8.36-8-11.63-2.84-10.84-29.57-1.77-1.77-3.31-3.88-5.37-5.19-1.73-1.1-4.05-1.25-5.5-1.65-.4-4.24-.68-7.14-.94-9.93-8.41-.04-15.2,1.26-22.29,3.07-6.84,1.74-15-2.24-22.66-2.94-3.99-.37-7.94,1.14-12,2.37-17.34,5.23-35.62,7.4-52.83,12.93-8.48,2.73-17.19,2.8-25.66,5.73-18.63,6.45-38.28,9.74-57.02,16.2-5.5,1.9-11.57,2.15-17.11,3.97-6.01,1.97-11.55,5.41-17.59,7.22-5.6,1.68-11.35-.43-17.59,2.98-8.45,4.61-18.68,7.52-28.32,8.04-16.88.92-32.03,7.34-47.39,12.63-19.06,6.57-36.9,16.5-56.61,21.68-3.46.91-6.28,4.28-8.82,6.1,4.91,4.91,8.8,8.81,12.72,12.72-1.52,9.47-2.8,17.44-4.17,26.03h16.6c4.76,10.05-1.63,16.4-7.04,22.58,1.95,2.28,3.43,3.48,4.2,5.03.96,1.96,1.34,4.2,1.99,6.4,17.52-6.72,30.33-5.96,35.88,1.73-2.21,2.21-4.42,4.42-6.97,6.97v15.82c4.45,1.97,8.59,3.81,14.55,6.45,1.75-3.19,3.46-6.28,4.62-8.39,3.66,1.89,5.72,2.95,8.56,4.42,5.32-11,12.37-19.37,24.42-20.66v-8.7c4.08-2.01,8.22-4.04,12.12-5.96,3.65,3.27,6.75,6.04,9.41,8.42,11.71-4.26,16.24-15.61,26.22-20.48,3.11-1.52,4.56-6.41,6.77-9.76,5.2,7.71,14.33.43,16.87,2.43,5.06,9.28,8.08,14.83,11.29,20.71-1.23,1.73-2.59,3.63-3.97,5.56,6.83,16.54,9.62,34.47,18.43,50.48,3.88,7.05,4.87,15.8,4.21,24.51-2.09,27.54,1.97,55.13-3.13,82.89-2.56,13.93-4.17,28.33-8.63,41.6-8.42,25.1-19.29,49.25-39.14,68.12-8.84,8.4-18.98,11.31-30.2,10.93-4.12-5.62-8.6-9.99-10.95-15.3-6.32-14.3-20.5-24.73-20.71-42.07-.02-1.41-2.3-2.7-3.3-4.2-3.9-5.86-7.69-11.8-11.55-17.69-9.79-14.93-20.62-17.93-38.13-10.85-2.93-1.28-6.1-1.86-8.13-3.69-6.45-5.79-11.61-4.67-17.21,1.34-1.31,1.4-5.35-.14-7.69.79-3.21,1.27-5.96,5.07-8.98,5.14-5.03.13-5.2,2.77-6.89,6.22-1.39,2.83-5.99,4.08-6.24,4.23v20.5c12.14,1.23,9.34,13.52,14.79,20.63,12.21,15.92,23.71,32.46,34.47,49.39,6.1,9.6,10.75,20.11,20.11,27.2,2.75,2.08,7.8,3,8.6,5.49,4.6,14.28,20.92,15.91,28.32,27.25,2.56,3.92,8.51,6.06,13.32,8.01,13.94,5.64,29.77,7.06,40.97,18.8,1.57,1.64,3.9,3.61,5.89,3.62,9.59.06,17.41,6.23,26.48,7.61,1.28-2.91,2.37-5.39,3.58-8.15,9.27,4.56,17.54,8.63,23.91,11.77,6.95-5.63,12.51-10.33,18.27-14.76,8.5-6.54,18.72-11.61,25.26-19.69,6.42-7.93,13.61-16.19,16.44-26.75.73-2.73,2.16-5.49,3.95-7.69,10.62-13.1,19.66-26.69,19.07-44.68-.1-3.19,2.71-6.36,3.49-9.7Zm.66-116.1h7.39c-1.8,13.73-3.55,27-5.29,40.27-.7-.03-1.4-.07-2.1-.1v-40.17Zm11.11-229.67h-14.81v-1.87c-.2-.06-.4-.13-.61-.21.22.06.42.09.61.12v-8.52c5.04,3.57,9.43,6.67,14.81,10.48Zm-142.91,449.84v-5.49c9.84-1.62,19.73-3.25,31.61-5.21-9.4,10.83-19.25,12.74-31.61,10.69Z"/><path class="cls-1" d="m1782.73,434.23c-11.84-17.53-23.41-35.23-35.06-52.88-1.29-1.95-3.8-4.17-3.52-5.9.99-6.1-3.15-8.95-6.54-12.41-2.62-2.68-5.92-4.91-7.83-8.02-9.86-15.99-18.85-32.54-30.85-47.13-4.98-6.06-10.72-11.64-14.83-18.24-6.68-10.74-12.31-22.13-18.53-33.51,2.08-.75,4.24-1.53,6.61-2.38.37-2.85.69-5.81,1.17-8.74.08-.48.85-.85,1.57-1.53,12.04,2.43,22.57-4.04,33.42-7.63q6.26,12.15,18.55,8.09c1.12-.37,2.51.1,3.65-.24,17.13-5.11,34.24-10.29,43.89-13.2,13.22-11.3.74-16.16,4.53-24.26,2.88-6.17,2.21-14,3.33-22.69-3.26-1.83-6.52-3.66-9.31-5.23,5.29-9.48,8.16-17.2-1.05-24.55-3.2,0-6.96-.44-10.57.1-5.78.87-11.41,2.9-17.21,3.52-6.51.7-12.99,2.42-19.12,3.17-14.21,1.74-27.73,6.14-41.75,8.29-4.56.7-9,3.56-13.44,3.45-14.6-.37-27.79,5.24-41.33,9.02-14.16,3.95-23.73,2.47-31.88-8.28-2.32-3.06-2.11-7.97-4.24-11.27-9.88-15.32-20.85-29.98-30.16-45.63-10.19-17.13-23.14-32.44-32.07-50.36-4.71-9.45-22.49-26.43-33.98-29.9-8.63-2.6-14.95-7.14-21.19-14.52-6.6,1.96-13.29,3.93-18.88,5.59-1.76,6.99-4.33,12.65-4.41,18.35-.27,19.3-4.54,37.98-7.77,56.81-.78,4.56-3.07,8.9-3.56,13.46-1.57,14.43-2.6,28.92-3.89,43.38-.16,1.75-.43,3.55-1.03,5.19-4.34,11.84-7.37,23.84-6.53,36.67.49,7.44.09,14.95.09,20.97-3.54,6.87-6.46,12.54-9.38,18.21-4.37,0-8.74,0-14.71,0-2.91,2.59-5.75,7.22-8.41,7.12-11.64-.44-19.72,9.6-29.24,10.53-11.81,1.16-18.71,9.73-28.84,12.49-4.13,1.12-7.28,4.22-6.92,9.41.4,5.79,3.74,8.45,8.93,9.45,1.58-1.47,2.92-2.72,4.25-3.95q3.13,16.69,17.22,20.6c-1.45,6.58-2.91,13.18-4.59,20.81h17.99c1,2.83,1.77,5,2.5,7.07,5.54,1.62,10.65-8.91,16.23,0,.58.93,5.5-.82,8.41-1.37,3.72-.69,7.43-1.42,11.19-2.14,2.17,15.22-2.92,28.1-4.25,41.25-1.66,16.39-6.75,32.57-6.71,49.43,0,2.24-1.22,4.47-1.76,6.73-3.37,14.25-4.01,28.22,2.93,40.27,9.96-1.3,18.71-2.44,25.88-3.38,12.84,9.47,13.22,22.42,15.37,34.87,2.18-1.87,3.47-2.97,4.74-4.05,2.4,2.4,4.61,4.61,7.83,7.83,5.82-7.48,11.53-14.81,17.09-21.95-1.86-3.59-4.02-6.05-4.37-8.74-1.73-13.47.92-70.86,3.61-86.46.1-.58.07-1.22.29-1.75,5.66-13.43,7.08-27.5,7.4-41.96.21-9.49,1.71-19.08,3.81-28.36.97-4.3,4.3-8.38,7.38-11.83,4.7-5.27,26.24-18.89,32.29-20.53,2.68-.73,5.78.14,9.5.33-2.09,2.88-3.13,4.32-4.79,6.62h19.07c2.06-5.11,4.11-10.21,6.58-16.35,3.98,4.26,6.69,7.17,10.8,11.57.98-5.77,1.57-9.2,2.31-13.57,2.97,0,5.98.17,8.96-.03,12.67-.84,21.65,4.15,26.85,16.01,1.63,3.71,4.18,7.05,6.56,10.39,7.85,11.02,17.11,21.05,22.61,33.72,1.84,4.25,5.11,7.89,7.83,11.74,6.14,8.7,14.19,16.65,17.94,26.27,3.01,7.71,7,13.58,12.4,19.28,2.34,2.47,3.71,5.89,5.38,8.96,11.94,21.9,24.29,43.59,35.47,65.87,3.17,6.32,7.35,10.43,11.61,14.56,8.92-2.48,7.84-9.53,9.55-15.23h12.52c.94,2.47,1.75,4.63,2.55,6.73h8.88c.92-2.61,1.69-4.78,2.66-7.49h12.85c.41-3.58.75-6.54,1.1-9.5,5.56-2.46,14.39-.19,14.58-11.66-1.58-1.33-4.54-2.92-6.2-5.38Zm-327.61-271.1c-.65,5.18-2.87,10.17-3.48,15.34-.63,5.37-.14,10.88-.14,19.02-3.84-4.63-7.38-6.98-7.21-9.02,1-12.04-1.96-23.98,2.51-36.32,3.95-10.9,3.45-23.42,5.25-37.99,4.92,6.99,2.72,12.35,3.1,17.14.45,5.59.1,11.23.1,16.86,0,5,.49,10.06-.13,14.97Zm7.43-71.67c-.73,4.34-3.26,8.37-5.13,12.86-5.48-2.08-8.67-8.42-5.47-11.81,5.14-5.44,1.35-11.73,4.44-17.09h6.36c0,5.4.67,10.85-.21,16.04Zm46.32,20.9c7.96,11.06,17.23,17.16,13.18,29.08-4.18-4.25-8.35-8.48-14.5-14.73.23-2.46.6-6.5,1.32-14.35Zm-11.57,102.84c-.64-9.97-1.13-18.35-1.75-26.71-.14-1.89,2.82-19.78,3.39-24.16,1.08-8.3,1.43-16.7,2.07-24.92,1.75-.26,3.26-.98,4.02-.51,2.03,1.26,4.7,2.69,5.41,4.67,7.7,21.32,28.51,35.82,31.41,60.81-13.57,7.7-29.36,5.44-44.56,10.82Zm157.8,29.75c-.54-3.21-.89-5.3-1.35-8.07h17.79c-7.03,3.45-11.22,5.51-16.44,8.07Z"/><path class="cls-1" d="m1346.54,447.97c1.61-8.21-8.31-15.4-2.05-24.15,1.33,1.2,2.63,2.37,4.83,4.35.38-2.89,1.42-5.37.84-7.37-2.77-9.52-8.48-18.27-7.37-28.79-7.8-6.35-7.51-16.81-12.56-24.9-8.46-13.58-19.71-24.31-29.46-36.51-16.79-21.01-33.9-41.64-53.34-60.23-9.23-8.83-17.79-18.17-28.54-25.71-11.59-8.13-20.88-19.64-30.67-30.15-3.05-3.28-4.66-7.99-6.6-12.19-4.16-9.02-4.53-18.57-3.71-25.97,4.49-6.64,7.43-11.93,11.26-16.46,6.66-7.87,13.49-15.88,23.33-19.87,2.49-1.01,6.03.56,10.07,1.07,10.35-8.59,25.71-13.13,35.63-26.1-4.07-1.91-6.57-3.08-8.13-3.81,8.09-5.5,16.36-11.12,25.14-17.09h13.68c1.01,2.43,2.24,6.49,2.72,6.4,7.31-1.34,13.57,8.58,21.87,2.26-1.42-2.92-2.6-5.35-4.55-9.37,5.34.95,9.6,1.7,14.03,2.49,2.18-6.9,4.77-15.09,7.63-24.17-2.5-1.55-5.99-3.71-8.42-5.21.3-4.44,1.57-8.94.71-12.99-2.46-11.55-11.3-19.45-17.8-28.68l-24.87-10.12.34-.84c-6.94-2.55-14.01-3.86-19.27-7.67-7.49-5.43-15.24-6.31-23.8-6.16-10.81.19-21.64.09-32.63.07v.02h-15.55c-2.43,4.83-6.52,8.97-12.85,10.73-5.04,1.4-10.98,1.57-14.96,4.45-17.94,12.98-36.98,24.76-52.4,40.79-8.17,8.5-14.92,18.58-21.24,28.62-6.47,10.28-11.85,21.28-17.31,32.16-2.87,5.74-3.71,12.61-4.63,18.55-4.14,26.42,5.94,49.81,17.85,72.92,5.39,10.46,16.35,15.86,20.5,27.1,1.98,5.36,6.34,10.1,10.41,14.37,18.56,19.47,39.78,35.96,59.96,53.62,19.08,16.7,38.88,33.44,51.36,57.04,5.31,10.04,5.94,17.94,1.12,26.91-3.87,7.21-7.77,14.8-13.31,20.65-20.27,21.39-45.28,35.61-72.8,45.72-5.95,2.19-11.54,6.53-17.56,7.1-10.17.97-19.45,5.35-29.16,6.57-13.65,1.72-27.38,3.01-41.56-1.36-13.98-4.31-27.44-9.39-40.12-16.32-6.95-3.8-13.73-4.25-20.82-2.89-5.59,1.08-10.94,3.42-16.38,5.19-.48,11.95,5.84,18.06,16.96,20.51,2.73.6,6.13,1.94,7.55,4.06,8.82,13.11,22.63,23.11,24.92,40.97,11.07-1.74,15.62,9.1,25.21,11.86,9.09,2.61,16.45,11.44,24.4,17.75,7.57,6.01,14.91,12.31,22.39,18.51,13.69,1.74,27.43,3.49,42.73,5.44,1.31,1.25,3.98,3.79,5.46,5.19,16.68,5.9,24.48-6,33.73-15.53,1.96,3.95,3.2,6.44,4.58,9.22,7.94-.91,16.21,1.26,28.38-2.48-7.82-1.13-11.26-1.63-15.98-2.32,13.33-8.73,29.6-3.53,40.26-13.46,11.73,9.47,21.73-9.57,32.72-.08,7.94-10.81,22.19-9.86,31.83-19.02,8.8-8.36,22.19-11.88,34.18-17.84,6.01-13.62,18.36-25.87,19.36-43.83-2.43-2.7-5.22-5.78-7.79-8.63,1.21-5.23,8.38-9.82.24-14.4Zm-43.37-15.97c-3.49-10.28-1.67-18.6,4.45-27.98,3.48,10.79.8,18.89-4.45,27.98Z"/></g></g></svg>