<?xml version="1.0" encoding="UTF-8"?><svg id="Layer_2" xmlns="http://www.w3.org/2000/svg" viewBox="0 0 1118.96 562.06"><defs><style>.cls-1{fill:#f77171;}</style></defs><g id="Layer_4"><g><path class="cls-1" d="m619.11,149.22h-10.19c-.05-.67-.11-1.34-.16-2.01,3.43-.46,6.85-.93,10.28-1.39.03,1.13.05,2.26.08,3.4Z"/><path class="cls-1" d="m298.49,430.54c5.3-22.51,12.72-44.69,11.04-68.35-.3-4.23-1.41-9.13.2-12.64,6.59-14.44,3.9-28.59-.43-42.59-1.72-5.57-3.66-10.7-3.71-16.77-.05-6.19-3.06-12.35-3.16-18.54-.12-7.71-.07-15.46-4.03-22.08-4.22-7.08-3.14-14.65-3.57-22.28-8.4-4.63-8.75-13.65-10.54-21.05-4.28-17.67-8.53-34.94-17.88-51.02-7.42-12.77-12.14-27.16-11.55-42.52.04-1.02.99-2,1.28-2.55,2.17-.76,3.98-1.39,8.91-3.11-6.74-.97-10.08-1.46-13.9-2.01,4.96-3.64,9.33-6.86,14.23-10.46h17.07c2.46-2.46,4.61-4.61,9.99-3.61-.02,2.02,1.9,6.34,3.91,10.87,4.98-.03,9.68,1.28,14.87-2.69,6.12-4.69,13.79-7.53,21.06-10.51,8.73-3.57,17.06-8.95,26.94-8.28,1.03,2.85,1.78,4.95,3.15,8.74,4.57-2.14,8.7-4.07,13.43-6.28-2.23-2.23-3.09-3.09-4.31-4.31,10.83-11.71,25.22-16.73,39.62-21.51v-11.81c-8.13-7.78-11.32-2.77-10.54-28.76-1.72-1.72-3.22-3.78-5.22-5.05-1.68-1.07-3.94-1.21-5.35-1.6-.39-4.13-.66-6.95-.91-9.66-8.18-.03-14.78,1.23-21.68,2.99-6.65,1.69-14.59-2.18-22.03-2.86-3.88-.36-7.72,1.11-11.67,2.3-16.86,5.09-34.64,7.2-51.38,12.58-8.25,2.65-16.72,2.73-24.96,5.58-18.12,6.27-37.23,9.47-55.46,15.75-5.35,1.85-11.25,2.09-16.64,3.86-5.84,1.91-11.23,5.26-17.11,7.02-5.45,1.63-11.04-.42-17.11,2.89-8.22,4.49-18.17,7.31-27.54,7.82-16.42.89-31.16,7.14-46.09,12.29-18.54,6.39-35.89,16.05-55.06,21.08-3.37.89-6.11,4.17-8.58,5.94,4.78,4.78,8.56,8.56,12.37,12.37-1.48,9.21-2.72,16.96-4.06,25.31h16.15c4.63,9.77-1.58,15.95-6.85,21.97,1.9,2.21,3.34,3.38,4.08,4.89.94,1.9,1.3,4.09,1.93,6.22,17.04-6.53,29.5-5.8,34.9,1.68-2.15,2.15-4.3,4.3-6.78,6.78v15.38c4.33,1.92,8.36,3.7,14.15,6.27,1.71-3.1,3.36-6.11,4.49-8.16,3.56,1.84,5.56,2.87,8.33,4.3,5.17-10.7,12.03-18.84,23.75-20.1v-8.47c3.97-1.95,8-3.93,11.79-5.8,3.55,3.18,6.56,5.87,9.15,8.19,11.39-4.14,15.79-15.18,25.5-19.92,3.02-1.48,4.44-6.24,6.58-9.5,5.06,7.5,13.94.42,16.41,2.36,4.92,9.03,7.86,14.42,10.98,20.14-1.2,1.68-2.52,3.53-3.86,5.41,6.65,16.08,9.36,33.53,17.93,49.09,3.77,6.85,4.74,15.36,4.1,23.84-2.03,26.78,1.92,53.62-3.04,80.62-2.49,13.54-4.06,27.55-8.39,40.46-8.19,24.42-18.76,47.9-38.07,66.25-8.59,8.17-18.46,11-29.37,10.63-4-5.47-8.37-9.72-10.65-14.88-6.15-13.91-19.94-24.05-20.14-40.91-.02-1.37-2.24-2.63-3.21-4.09-3.79-5.7-7.48-11.48-11.24-17.21-9.53-14.52-20.06-17.44-37.08-10.56-2.85-1.24-5.93-1.81-7.91-3.59-6.27-5.63-11.29-4.54-16.74,1.3-1.27,1.36-5.2-.13-7.48.77-3.12,1.23-5.8,4.93-8.73,5-4.89.13-5.06,2.7-6.7,6.05-1.35,2.75-5.82,3.97-6.07,4.12v19.94c11.8,1.2,9.08,13.15,14.39,20.06,11.88,15.48,23.06,31.57,33.53,48.04,5.94,9.34,10.46,19.56,19.56,26.45,2.68,2.03,7.59,2.92,8.36,5.34,4.47,13.89,20.35,15.47,27.55,26.5,2.49,3.82,8.27,5.9,12.95,7.79,13.56,5.49,28.95,6.87,39.84,18.29,1.53,1.6,3.79,3.51,5.73,3.52,9.32.06,16.93,6.06,25.75,7.4,1.24-2.83,2.3-5.24,3.48-7.93,9.01,4.44,17.06,8.4,23.26,11.45,6.76-5.48,12.17-10.05,17.77-14.36,8.26-6.36,18.21-11.29,24.57-19.15,6.24-7.71,13.23-15.75,15.99-26.02.71-2.66,2.11-5.34,3.84-7.48,10.33-12.74,19.12-25.96,18.54-43.45-.1-3.1,2.63-6.19,3.4-9.43Zm.64-112.92h7.19c-1.75,13.35-3.45,26.26-5.14,39.17-.68-.03-1.36-.06-2.05-.1v-39.07Zm10.8-223.37h-14.4v-1.82c-.19-.06-.39-.13-.6-.21.21.06.41.09.6.11v-8.28c4.9,3.47,9.17,6.49,14.4,10.19Zm-138.99,437.51v-5.34c9.57-1.58,19.19-3.16,30.74-5.06-9.14,10.54-18.72,12.39-30.74,10.4Z"/><path class="cls-1" d="m1112.93,422.33c-11.51-17.05-22.77-34.26-34.1-51.43-1.25-1.9-3.7-4.05-3.42-5.74.97-5.94-3.07-8.7-6.36-12.07-2.55-2.61-5.76-4.78-7.62-7.8-9.59-15.56-18.33-31.65-30.01-45.84-4.85-5.89-10.43-11.32-14.42-17.74-6.5-10.44-11.98-21.53-18.02-32.59,2.02-.73,4.13-1.49,6.43-2.32.36-2.77.67-5.65,1.14-8.5.08-.47.82-.83,1.52-1.48,11.71,2.36,21.95-3.93,32.51-7.42q6.09,11.81,18.05,7.87c1.09-.36,2.44.09,3.55-.24,16.66-4.97,33.31-10.01,42.68-12.84,12.86-10.99.72-15.72,4.41-23.6,2.8-6,2.15-13.61,3.24-22.07-3.17-1.78-6.34-3.56-9.06-5.09,5.15-9.22,7.93-16.73-1.02-23.88-3.11,0-6.77-.43-10.28.1-5.62.85-11.1,2.82-16.73,3.42-6.33.68-12.63,2.36-18.6,3.09-13.82,1.69-26.97,5.97-40.6,8.06-4.44.68-8.75,3.47-13.07,3.36-14.2-.36-27.03,5.1-40.2,8.78-13.77,3.84-23.08,2.4-31.01-8.05-2.26-2.98-2.05-7.75-4.12-10.97-9.61-14.9-20.28-29.16-29.33-44.38-9.91-16.66-22.51-31.55-31.19-48.98-4.58-9.19-21.87-25.71-33.05-29.08-8.4-2.53-14.54-6.94-20.61-14.12-6.42,1.9-12.92,3.83-18.37,5.44-1.71,6.8-4.21,12.31-4.29,17.85-.27,18.77-4.41,36.93-7.56,55.26-.76,4.43-2.98,8.65-3.46,13.09-1.53,14.04-2.53,28.13-3.79,42.19-.15,1.7-.42,3.45-1,5.04-4.23,11.52-7.17,23.19-6.35,35.66.47,7.24.09,14.54.09,20.39-3.44,6.68-6.28,12.2-9.13,17.71-4.25,0-8.5,0-14.3,0-2.83,2.52-5.59,7.02-8.18,6.93-11.32-.42-19.18,9.33-28.44,10.24-11.49,1.13-18.2,9.47-28.05,12.15-4.02,1.09-7.08,4.1-6.73,9.15.39,5.63,3.64,8.22,8.69,9.19,1.53-1.43,2.84-2.64,4.13-3.85q3.04,16.24,16.74,20.04c-1.41,6.4-2.83,12.82-4.46,20.24h17.5c.97,2.75,1.72,4.86,2.43,6.87,5.39,1.57,10.36-8.67,15.79,0,.57.91,5.35-.8,8.18-1.33,3.62-.67,7.23-1.38,10.88-2.08,2.11,14.8-2.84,27.33-4.13,40.12-1.61,15.94-6.56,31.68-6.52,48.07,0,2.18-1.19,4.34-1.71,6.54-3.27,13.86-3.9,27.45,2.85,39.17,9.69-1.27,18.2-2.38,25.17-3.29,12.49,9.21,12.86,21.81,14.95,33.91,2.13-1.82,3.37-2.88,4.61-3.94,2.33,2.33,4.48,4.48,7.61,7.61,5.66-7.27,11.21-14.41,16.62-21.35-1.81-3.5-3.91-5.88-4.25-8.5-1.68-13.11.9-68.92,3.51-84.09.1-.57.07-1.19.28-1.7,5.5-13.06,6.89-26.75,7.2-40.81.2-9.23,1.67-18.56,3.71-27.58.95-4.18,4.18-8.15,7.18-11.5,4.57-5.13,25.52-18.38,31.4-19.97,2.6-.71,5.62.14,9.24.32-2.03,2.8-3.05,4.21-4.66,6.44h18.54c2-4.97,4-9.93,6.4-15.9,3.87,4.15,6.51,6.97,10.51,11.26.96-5.61,1.52-8.95,2.25-13.2,2.89,0,5.81.17,8.72-.03,12.32-.82,21.06,4.04,26.11,15.57,1.58,3.61,4.07,6.86,6.38,10.1,7.64,10.72,16.64,20.47,21.99,32.79,1.79,4.13,4.97,7.67,7.61,11.42,5.97,8.47,13.8,16.19,17.45,25.55,2.92,7.5,6.81,13.21,12.06,18.75,2.28,2.4,3.61,5.73,5.23,8.71,11.61,21.3,23.62,42.4,34.5,64.06,3.09,6.15,7.15,10.15,11.29,14.16,8.68-2.41,7.62-9.27,9.29-14.82h12.18c.91,2.4,1.7,4.5,2.48,6.55h8.64c.9-2.53,1.65-4.64,2.58-7.28h12.5c.4-3.49.73-6.36,1.07-9.24,5.41-2.39,14-.19,14.18-11.34-1.54-1.3-4.42-2.84-6.03-5.23Zm-318.63-263.67c-.64,5.04-2.79,9.89-3.38,14.92-.61,5.23-.14,10.58-.14,18.5-3.73-4.5-7.18-6.79-7.02-8.78.97-11.71-1.91-23.32,2.44-35.32,3.84-10.61,3.35-22.78,5.11-36.95,4.79,6.8,2.64,12.02,3.02,16.67.44,5.43.1,10.93.1,16.39,0,4.86.47,9.78-.13,14.56Zm7.22-69.71c-.71,4.22-3.17,8.14-4.99,12.5-5.33-2.02-8.43-8.19-5.32-11.49,5-5.29,1.31-11.41,4.32-16.62h6.19c0,5.26.65,10.56-.2,15.6Zm45.05,20.33c7.74,10.76,16.76,16.69,12.82,28.28-4.07-4.13-8.12-8.25-14.1-14.33.22-2.39.58-6.32,1.28-13.95Zm-11.26,100.02c-.62-9.7-1.1-17.84-1.7-25.98-.14-1.84,2.74-19.24,3.3-23.5,1.05-8.07,1.39-16.24,2.01-24.24,1.71-.26,3.17-.96,3.91-.49,1.97,1.23,4.57,2.62,5.26,4.54,7.49,20.74,27.73,34.84,30.55,59.14-13.2,7.49-28.55,5.29-43.34,10.53Zm153.47,28.93c-.52-3.12-.86-5.15-1.32-7.85h17.3c-6.84,3.36-10.91,5.36-15.99,7.85Z"/><path class="cls-1" d="m688.69,435.69c1.57-7.99-8.09-14.98-1.99-23.48,1.29,1.16,2.56,2.31,4.7,4.24.37-2.81,1.38-5.22.81-7.17-2.69-9.26-8.25-17.77-7.17-28-7.59-6.18-7.3-16.35-12.21-24.22-8.23-13.2-19.17-23.65-28.65-35.51-16.33-20.44-32.97-40.5-51.88-58.57-8.98-8.58-17.3-17.67-27.76-25-11.27-7.9-20.3-19.11-29.83-29.32-2.97-3.19-4.53-7.77-6.42-11.86-4.04-8.78-4.41-18.06-3.61-25.26,4.37-6.46,7.23-11.6,10.95-16.01,6.47-7.66,13.12-15.44,22.69-19.32,2.43-.98,5.87.54,9.8,1.04,10.06-8.35,25.01-12.77,34.66-25.38-3.96-1.86-6.39-2.99-7.91-3.71,7.87-5.35,15.92-10.82,24.46-16.62h13.3c.98,2.36,2.18,6.31,2.64,6.23,7.1-1.3,13.19,8.34,21.27,2.2-1.38-2.84-2.53-5.2-4.43-9.12,5.19.92,9.34,1.66,13.65,2.42,2.12-6.72,4.64-14.68,7.42-23.51-2.43-1.51-5.82-3.6-8.19-5.07.3-4.32,1.53-8.69.69-12.63-2.39-11.23-10.99-18.91-17.31-27.9l-24.19-9.84.33-.82c-6.75-2.48-13.63-3.76-18.75-7.46-7.28-5.28-14.82-6.13-23.15-5.99-10.52.19-21.05.09-31.74.06v.02h-15.12c-2.37,4.7-6.34,8.72-12.5,10.43-4.9,1.36-10.68,1.53-14.55,4.33-17.45,12.63-35.97,24.08-50.96,39.67-7.95,8.27-14.51,18.07-20.66,27.83-6.3,10-11.53,20.69-16.83,31.28-2.79,5.58-3.6,12.27-4.51,18.04-4.02,25.7,5.77,48.45,17.36,70.92,5.24,10.17,15.9,15.43,19.94,26.35,1.93,5.21,6.17,9.83,10.13,13.98,18.05,18.94,38.69,34.98,58.32,52.15,18.55,16.24,37.82,32.52,49.95,55.48,5.16,9.77,5.78,17.45,1.09,26.17-3.76,7.01-7.56,14.39-12.95,20.08-19.72,20.81-44.04,34.64-70.8,44.46-5.79,2.13-11.22,6.35-17.08,6.91-9.89.94-18.91,5.2-28.36,6.39-13.27,1.67-26.63,2.93-40.42-1.32-13.6-4.2-26.69-9.13-39.02-15.87-6.76-3.7-13.35-4.13-20.25-2.81-5.44,1.05-10.64,3.33-15.93,5.05-.47,11.62,5.68,17.56,16.49,19.95,2.65.59,5.96,1.88,7.35,3.95,8.58,12.75,22.01,22.48,24.24,39.85,10.77-1.69,15.2,8.85,24.52,11.53,8.84,2.54,16,11.13,23.73,17.27,7.36,5.85,14.51,11.98,21.78,18.01,13.32,1.69,26.67,3.39,41.56,5.29,1.28,1.21,3.88,3.69,5.31,5.05,16.23,5.73,23.8-5.83,32.8-15.1,1.9,3.84,3.11,6.27,4.45,8.97,7.72-.88,15.76,1.23,27.6-2.42-7.61-1.1-10.95-1.59-15.54-2.25,12.96-8.49,28.79-3.43,39.15-13.09,11.4,9.21,21.13-9.31,31.83-.08,7.72-10.52,21.58-9.59,30.96-18.5,8.56-8.13,21.58-11.55,33.24-17.35,5.84-13.24,17.85-25.16,18.83-42.62-2.37-2.62-5.08-5.62-7.58-8.39,1.18-5.09,8.15-9.55.24-14.01Zm-42.18-15.53c-3.4-10-1.63-18.09,4.33-27.22,3.39,10.49.78,18.37-4.33,27.22Z"/></g></g></svg>